<?xml version="1.0" encoding="UTF-8"?>
<svg xmlns="http://www.w3.org/2000/svg" viewBox="0 0 65 35">
  <g fill="none" fill-rule="evenodd">
    <path fill="#0D2132" d="M18.0636 13.2817c0 .6852-.1304 1.331-.3903 1.9392-.2616.6073-.624 1.1376-1.0895 1.5892-.4664.4524-1.0142.8086-1.6452 1.0694-.63.2599-1.3144.3903-2.0547.3903-.7404 0-1.4256-.1304-2.0557-.3903-.63-.2608-1.1743-.6144-1.6303-1.0624-.4568-.448-.8156-.9731-1.0755-1.576-.2599-.603-.3912-1.2471-.3912-1.9314v-.028c0-.6852.1313-1.331.3912-1.9393.26-.6073.623-1.1376 1.0887-1.5892.4664-.4524 1.0142-.8086 1.6451-1.0685.6292-.2607 1.3153-.3903 2.0548-.3903.7395 0 1.4255.1296 2.0556.3903.63.26 1.1744.6144 1.6303 1.0615.4577.448.8148.9732 1.0764 1.5761.26.603.3903 1.247.3903 1.9322v.0272Zm6.7567-4.8919c-.651-1.5052-1.5454-2.817-2.6866-3.9344-1.1385-1.1176-2.4975-2.0014-4.07-2.6516-1.5735-.6502-3.2861-.974-5.1317-.974-1.8491 0-3.5582.3238-5.1316.974-1.5752.6502-2.9421 1.5393-4.106 2.6682C2.5314 5.6009 1.6265 6.9232.9746 8.4406c-.6494 1.5174-.9749 3.1311-.9749 4.841v.0692c0 1.709.3255 3.3175.9749 4.8236.652 1.5043 1.5445 2.816 2.6865 3.9336 1.1385 1.1175 2.4976 2.0022 4.0701 2.6515 1.5735.6502 3.2852.9749 5.1317.9749 1.8482 0 3.5573-.3247 5.1307-.9749 1.576-.6493 2.943-1.5393 4.106-2.6682 1.1639-1.1288 2.0696-2.4511 2.7207-3.9686.6484-1.5174.9749-3.131.9749-4.841v-.0692c0-1.7108-.3265-3.3184-.975-4.8227Zm4.6504-6.8939h9.7618l7.9521 12.9052 7.952-12.9052h9.7618v33.3336h-9.1886V15.6858l-8.5016 13.0478h-.1899L38.5665 15.782v19.0475h-9.0958z"></path>
    <path fill="#46C3FC" d="M25.1285 34.8298c0-3.2125-2.6052-5.8168-5.8168-5.8168H6.4835c-3.2134 0-5.8168 2.6043-5.8168 5.8168h24.4618Z"></path>
  </g>
</svg>
